<?xml version="1.0" encoding="UTF-8" standalone="no"?>
<svg
   width="700pt"
   height="700pt"
   version="1.1"
   viewBox="0 0 700 700"
   id="svg4"
   sodipodi:docname="noun-lock-open.svg"
   inkscape:version="1.2.1 (9c6d41e4, 2022-07-14)"
   xmlns:inkscape="http://www.inkscape.org/namespaces/inkscape"
   xmlns:sodipodi="http://sodipodi.sourceforge.net/DTD/sodipodi-0.dtd"
   xmlns="http://www.w3.org/2000/svg"
   xmlns:svg="http://www.w3.org/2000/svg">
  <defs
     id="defs8" />
  <sodipodi:namedview
     id="namedview6"
     pagecolor="#ffffff"
     bordercolor="#000000"
     borderopacity="0.25"
     inkscape:showpageshadow="2"
     inkscape:pageopacity="0.0"
     inkscape:pagecheckerboard="0"
     inkscape:deskcolor="#d1d1d1"
     inkscape:document-units="pt"
     showgrid="false"
     inkscape:zoom="0.42046735"
     inkscape:cx="130.80683"
     inkscape:cy="635.00769"
     inkscape:window-width="1390"
     inkscape:window-height="772"
     inkscape:window-x="0"
     inkscape:window-y="0"
     inkscape:window-maximized="0"
     inkscape:current-layer="svg4" />
  <path
     d="m 180.32108,169.71107 c 0,-93.710004 75.96942,-169.67942056 169.67942,-169.67942056 93.71,0 169.67942,75.96941656 169.67942,169.67942056 v 171.23986 c 32.6436,2.4146 53.75807,8.5514 68.93833,24.18083 24.99135,25.73674 23.78389,66.80219 21.36899,148.93157 l -5.46822,185.90502 H 95.480759 L 90.012537,514.06333 c -2.4146,-82.12938 -3.621747,-123.19332 21.369003,-148.93157 24.99075,-25.73824 66.07347,-25.73673 148.23922,-25.73673 H 434.84505 V 169.71561 c 0,-46.85879 -37.98697,-84.839705 -84.83971,-84.839705 -46.85272,0 -84.83971,37.980915 -84.83971,84.839705 v 63.62978 h -84.83971 z m 169.67942,381.7787 c 23.42939,0 42.41985,-18.99047 42.41985,-42.41986 0,-23.42939 -18.99046,-42.41986 -42.41985,-42.41986 -23.4294,0 -42.41986,18.99047 -42.41986,42.41986 0,23.42939 18.99046,42.41986 42.41986,42.41986 z"
     fill-rule="evenodd"
     id="path2"
     style="stroke-width:1.515" />
</svg>
