<?xml version="1.0" encoding="UTF-8" standalone="no"?>
<svg
   width="700pt"
   height="700pt"
   version="1.1"
   viewBox="0 0 700 700"
   id="svg4"
   sodipodi:docname="noun-bookmark.svg"
   inkscape:version="1.2.1 (9c6d41e4, 2022-07-14)"
   xmlns:inkscape="http://www.inkscape.org/namespaces/inkscape"
   xmlns:sodipodi="http://sodipodi.sourceforge.net/DTD/sodipodi-0.dtd"
   xmlns="http://www.w3.org/2000/svg"
   xmlns:svg="http://www.w3.org/2000/svg">
  <defs
     id="defs8" />
  <sodipodi:namedview
     id="namedview6"
     pagecolor="#ffffff"
     bordercolor="#000000"
     borderopacity="0.25"
     inkscape:showpageshadow="2"
     inkscape:pageopacity="0.0"
     inkscape:pagecheckerboard="0"
     inkscape:deskcolor="#d1d1d1"
     inkscape:document-units="pt"
     showgrid="false"
     inkscape:zoom="0.25438711"
     inkscape:cx="308.58482"
     inkscape:cy="495.30812"
     inkscape:window-width="1309"
     inkscape:window-height="456"
     inkscape:window-x="0"
     inkscape:window-y="0"
     inkscape:window-maximized="0"
     inkscape:current-layer="svg4" />
  <path
     d="M 76.179451,28.555923 C 48.675751,56.989297 50.185222,102.31342 53.205831,192.93835 L 70.108244,699.87745 298.24501,547.77573 c 25.08954,-16.71915 37.63015,-25.08288 51.75187,-25.08288 14.12922,0 26.67066,8.3629 51.75854,25.08288 l 228.13676,152.10172 16.90241,-506.9391 C 649.81437,102.31175 651.32434,56.989297 623.82097,28.555923 596.31727,0.12254832 550.98149,0.12254832 460.29825,0.12254832 H 239.69218 c -90.6849,0 -136.02069,0 -163.522726,28.43337468 z m 50.249069,48.641296 c -6.87909,7.106845 -6.50805,18.425214 -5.77264,41.065611 l 14.76049,453.32456 87.16947,-56.85509 c 61.83334,-40.32421 92.74752,-60.48715 127.42204,-60.48715 34.66952,0 65.58203,20.16294 127.41704,60.48715 l 87.17613,56.85509 14.754,-453.32456 c 0.73542,-22.642064 1.10638,-33.959766 -5.76615,-41.065611 -6.87909,-7.100346 -18.20362,-7.100346 -40.85736,-7.100346 H 167.27621 c -22.64873,0 -33.97976,0 -40.85235,7.100346 z"
     fill-rule="evenodd"
     id="path2"
     style="stroke-width:1.66608" />
</svg>
