<?xml version="1.0" encoding="UTF-8" standalone="no"?>
<svg
   width="700pt"
   height="700pt"
   version="1.1"
   viewBox="0 0 700 700"
   id="svg133"
   sodipodi:docname="noun-random.svg"
   inkscape:version="1.2.1 (9c6d41e4, 2022-07-14)"
   xmlns:inkscape="http://www.inkscape.org/namespaces/inkscape"
   xmlns:sodipodi="http://sodipodi.sourceforge.net/DTD/sodipodi-0.dtd"
   xmlns="http://www.w3.org/2000/svg"
   xmlns:svg="http://www.w3.org/2000/svg">
  <sodipodi:namedview
     id="namedview135"
     pagecolor="#ffffff"
     bordercolor="#000000"
     borderopacity="0.25"
     inkscape:showpageshadow="2"
     inkscape:pageopacity="0.0"
     inkscape:pagecheckerboard="0"
     inkscape:deskcolor="#d1d1d1"
     inkscape:document-units="pt"
     showgrid="false"
     inkscape:zoom="3.1970776"
     inkscape:cx="827.16165"
     inkscape:cy="481.06433"
     inkscape:window-width="1390"
     inkscape:window-height="772"
     inkscape:window-x="0"
     inkscape:window-y="0"
     inkscape:window-maximized="0"
     inkscape:current-layer="g131" />
  <defs
     id="defs59" />
  <g
     id="g131">
    <path
       d="M 531.77718,465.87405 C 613.18833,457.33086 649.39621,372.66873 621.13631,300.74179 581.8294,200.73929 419.02246,193.54269 385.43458,356.8943 334.79719,603.11231 77.696979,580.3759 15.10202,424.63986 -31.989439,307.48451 37.180639,175.60075 168.22365,165.0286 l 0.0164,-40.08061 c -0.0272,-17.41402 19.01731,-28.782224 34.44539,-19.85804 l 128.52916,74.21594 c 15.28004,8.55408 15.78839,30.87153 0.26731,39.86833 L 204.0714,292.72958 c -15.01888,10.17985 -35.88525,-0.43643 -35.88525,-19.05641 l 0.0163,-39.18679 C 88.024463,244.68257 49.907457,326.46969 79.055591,399.00414 118.88621,498.07513 284.06037,508.0244 317.9555,343.11839 368.40156,97.905912 623.64012,118.61727 685.35522,275.62978 731.12552,392.16786 663.92601,526.5124 531.80066,535.22708 l 0.0112,39.8027 c 0,18.61368 -20.85661,29.22494 -35.88526,19.04523 L 368.5161,520.51965 c -15.52025,-8.99053 -15.01329,-31.31424 0.27824,-39.86833 l 128.52915,-74.20477 c 15.42808,-8.93046 34.47332,2.44947 34.44538,19.85246 l 0.0112,39.57365 z"
       fill-rule="evenodd"
       id="path61"
       style="stroke-width:1.39658" />
  </g>
</svg>
