<?xml version="1.0" encoding="UTF-8" standalone="no"?>
<svg
   width="700pt"
   height="700pt"
   version="1.1"
   viewBox="0 0 700 700"
   id="svg4"
   sodipodi:docname="noun-gear.svg"
   inkscape:version="1.2.1 (9c6d41e4, 2022-07-14)"
   xmlns:inkscape="http://www.inkscape.org/namespaces/inkscape"
   xmlns:sodipodi="http://sodipodi.sourceforge.net/DTD/sodipodi-0.dtd"
   xmlns="http://www.w3.org/2000/svg"
   xmlns:svg="http://www.w3.org/2000/svg">
  <defs
     id="defs8" />
  <sodipodi:namedview
     id="namedview6"
     pagecolor="#ffffff"
     bordercolor="#000000"
     borderopacity="0.25"
     inkscape:showpageshadow="2"
     inkscape:pageopacity="0.0"
     inkscape:pagecheckerboard="0"
     inkscape:deskcolor="#d1d1d1"
     inkscape:document-units="pt"
     showgrid="false"
     inkscape:zoom="1.7392774"
     inkscape:cx="735.07537"
     inkscape:cy="435.23821"
     inkscape:window-width="1390"
     inkscape:window-height="772"
     inkscape:window-x="0"
     inkscape:window-y="0"
     inkscape:window-maximized="0"
     inkscape:current-layer="svg4" />
  <path
     d="m 497.79243,38.351507 c 5.89378,11.238814 4.8149,25.300787 2.66328,53.420298 L 499.383,105.73562 c -3.65584,47.75442 -5.48691,71.63163 8.87761,85.99521 14.37067,14.36452 38.24709,12.5396 85.99521,8.87761 l 13.97611,-1.06655 c 28.11796,-2.15777 42.17535,-3.2305 53.42032,2.65713 3.48318,1.83108 6.70752,4.11826 9.59271,6.80001 9.28448,8.64339 12.93416,22.26741 20.23306,49.5047 7.29936,27.2436 10.94904,40.86225 7.2315,52.99419 -1.15286,3.76678 -2.80502,7.35491 -4.91354,10.68391 -6.7877,10.72098 -19.49918,16.81774 -44.93095,29.0128 l -12.6321,6.06014 c -43.18541,20.70178 -64.77575,31.05979 -70.03446,50.68206 -5.25869,19.62385 8.2673,39.38817 35.30685,78.91207 l 7.90967,11.5532 c 15.92445,23.27906 23.88353,34.91228 24.40119,47.59345 0.16028,3.93329 -0.20345,7.87274 -1.08504,11.7074 -2.84826,12.36694 -12.81706,22.33526 -32.76114,42.2795 -19.93792,19.94423 -29.9061,29.91241 -42.2732,32.75482 -3.84081,0.88159 -7.78025,1.2515 -11.71354,1.09121 -12.67517,-0.51787 -24.31439,-8.48304 -47.58713,-24.4075 l -11.55936,-7.90967 c -39.53021,-27.04633 -59.28822,-40.56554 -78.91839,-35.30684 -19.61753,5.2587 -29.97396,26.84904 -50.68206,70.03447 l -6.05398,12.62592 c -12.19444,25.4302 -18.29181,38.14294 -29.01281,44.93096 -3.32914,2.10837 -6.92327,3.76063 -10.6839,4.91354 -12.13273,3.71754 -25.75059,0.0678 -52.9942,-7.2315 -27.23729,-7.29938 -40.86224,-10.94905 -49.50469,-20.23306 -2.68791,-2.87902 -4.96894,-6.10953 -6.80001,-9.59271 -5.89379,-11.23882 -4.8149,-25.30079 -2.65713,-53.42032 l 1.06655,-13.9638 c 3.65583,-47.74811 5.48691,-71.62533 -8.87761,-85.9889 -14.37068,-14.36453 -38.24711,-12.5396 -85.99522,-8.88376 l -13.951338,1.0727 c -28.117949,2.15162 -42.181658,3.23051 -53.420315,-2.66328 -3.489334,-1.82476 -6.71368,-4.1121 -9.592708,-6.79385 C 19.468325,482.36133 15.818642,468.74347 8.519591,441.49987 1.2202246,414.26258 -2.4294586,400.64394 1.2942441,388.512 c 1.152858,-3.7668 2.8050085,-7.36108 4.9073838,-10.68391 6.7877011,-10.721 19.5054851,-16.81774 44.9309541,-29.01281 l 12.625931,-6.05398 c 43.179107,-20.70811 64.775757,-31.0661 70.028147,-50.68838 5.2587,-19.62385 -8.26114,-39.38817 -35.300524,-78.91207 L 90.570309,201.6015 c -15.924456,-23.27907 -23.883527,-34.91228 -24.40119,-47.59345 -0.160286,-3.93329 0.203451,-7.86659 1.085041,-11.70739 2.848252,-12.36694 12.817056,-22.33528 32.76113,-42.27951 19.93793,-19.937927 29.91242,-29.912412 42.27952,-32.754825 3.83465,-0.881589 7.76794,-1.251498 11.70123,-1.091211 12.68149,0.517852 24.3207,8.483047 47.59345,24.407503 l 11.5532,7.903516 c 39.53021,27.046327 59.29453,40.565537 78.91839,35.306847 19.62384,-5.25256 29.97396,-26.84905 50.68206,-70.028141 l 6.06013,-12.632086 c 12.18829,-25.423891 18.29182,-38.142938 29.01281,-44.9309544 3.32299,-2.1022175 6.91712,-3.7544785 10.67775,-4.9073838 12.13889,-3.7237027 25.7569,-0.074019 52.99419,7.225347 27.2436,7.2993662 40.86224,10.9490502 49.51101,20.2393682 2.68175,2.879027 4.96894,6.109529 6.79386,9.592708 z M 321.39239,456.71172 c 58.93784,15.78872 119.51549,-19.1851 135.30895,-78.12295 15.78873,-58.93154 -19.18511,-119.51548 -78.12295,-135.30263 -58.93153,-15.78873 -119.51549,19.18509 -135.30264,78.11663 -15.78873,58.93785 19.18511,119.51548 78.11664,135.30895 z"
     fill-rule="evenodd"
     id="path2"
     style="stroke-width:1.57824" />
</svg>
