<?xml version="1.0" encoding="UTF-8" standalone="no"?>
<svg
   width="700pt"
   height="700pt"
   version="1.1"
   viewBox="0 0 700 700"
   id="svg4"
   sodipodi:docname="noun-lock.svg"
   inkscape:version="1.2.1 (9c6d41e4, 2022-07-14)"
   xmlns:inkscape="http://www.inkscape.org/namespaces/inkscape"
   xmlns:sodipodi="http://sodipodi.sourceforge.net/DTD/sodipodi-0.dtd"
   xmlns="http://www.w3.org/2000/svg"
   xmlns:svg="http://www.w3.org/2000/svg">
  <defs
     id="defs8" />
  <sodipodi:namedview
     id="namedview6"
     pagecolor="#ffffff"
     bordercolor="#000000"
     borderopacity="0.25"
     inkscape:showpageshadow="2"
     inkscape:pageopacity="0.0"
     inkscape:pagecheckerboard="0"
     inkscape:deskcolor="#d1d1d1"
     inkscape:document-units="pt"
     showgrid="false"
     inkscape:zoom="0.66642857"
     inkscape:cx="430.65381"
     inkscape:cy="397.64202"
     inkscape:window-width="1390"
     inkscape:window-height="772"
     inkscape:window-x="175"
     inkscape:window-y="76"
     inkscape:window-maximized="0"
     inkscape:current-layer="svg4" />
  <path
     d="m 349.99951,33.103509 c -93.34044,0 -169.01026,75.669811 -169.01026,169.010251 v 107.18118 c -32.5209,2.40508 -53.55211,8.51766 -68.66645,24.08547 -24.892794,25.63523 -23.690104,66.53873 -21.284726,148.34422 l 5.446657,185.17186 H 603.51549 l 5.44666,-185.17186 c 2.40508,-81.80549 3.60746,-122.70748 -21.28473,-148.34422 -15.12038,-15.56706 -36.1516,-21.68009 -68.66646,-24.08547 V 202.11376 c 0,-93.34044 -75.66981,-169.010251 -169.01025,-169.010251 z M 434.50463,202.11376 V 307.74517 H 265.49438 V 202.11376 c 0,-46.67398 37.83717,-84.50512 84.50513,-84.50512 46.66796,0 84.50512,37.83114 84.50512,84.50512 z m -84.50512,316.89423 c 23.33699,0 42.25256,-18.91557 42.25256,-42.25256 0,-23.337 -18.91557,-42.25257 -42.25256,-42.25257 -23.337,0 -42.25256,18.91557 -42.25256,42.25257 0,23.33699 18.91556,42.25256 42.25256,42.25256 z"
     fill-rule="evenodd"
     id="path2"
     style="display:inline;stroke-width:1.50902" />
</svg>
