<?xml version="1.0" encoding="UTF-8" standalone="no"?>
<svg
   width="700pt"
   height="700pt"
   version="1.1"
   viewBox="0 0 700 700"
   id="svg186"
   sodipodi:docname="noun-loading.svg"
   inkscape:version="1.2.1 (9c6d41e4, 2022-07-14)"
   xmlns:inkscape="http://www.inkscape.org/namespaces/inkscape"
   xmlns:sodipodi="http://sodipodi.sourceforge.net/DTD/sodipodi-0.dtd"
   xmlns="http://www.w3.org/2000/svg"
   xmlns:svg="http://www.w3.org/2000/svg">
  <sodipodi:namedview
     id="namedview188"
     pagecolor="#ffffff"
     bordercolor="#000000"
     borderopacity="0.25"
     inkscape:showpageshadow="2"
     inkscape:pageopacity="0.0"
     inkscape:pagecheckerboard="0"
     inkscape:deskcolor="#d1d1d1"
     inkscape:document-units="pt"
     showgrid="false"
     inkscape:zoom="0.66642857"
     inkscape:cx="430.6538"
     inkscape:cy="355.62701"
     inkscape:window-width="1390"
     inkscape:window-height="772"
     inkscape:window-x="0"
     inkscape:window-y="0"
     inkscape:window-maximized="0"
     inkscape:current-layer="svg186" />
  <defs
     id="defs68" />
  <g
     id="g184"
     transform="matrix(1.7808722,0,0,1.7808722,-273.30253,-148.65268)">
    <path
       d="m 396.58,123.84 c 0,22 -17.836,39.836 -39.84,39.836 -22,0 -39.84,-17.836 -39.84,-39.836 0,-22.004 17.84,-39.84 39.84,-39.84 22.004,0 39.84,17.836 39.84,39.84"
       id="path70" />
    <path
       d="m 285.27,165.91 c 0,19.801 -16.055,35.852 -35.852,35.852 -19.801,0 -35.852,-16.051 -35.852,-35.852 0,-19.801 16.051,-35.852 35.852,-35.852 19.797,0 35.852,16.051 35.852,35.852"
       id="path72" />
    <path
       d="m 225.22,259.79 c 4.0469,17.129 -6.5625,34.293 -23.691,38.34 -17.129,4.043 -34.293,-6.5625 -38.34,-23.691 -4.043,-17.133 6.5625,-34.297 23.695,-38.34 17.129,-4.0469 34.293,6.5625 38.336,23.691"
       id="path74" />
    <path
       d="m 244.86,380.16 c 0,15.402 -12.484,27.887 -27.887,27.887 -15.403,0 -27.887,-12.484 -27.887,-27.887 0,-15.403 12.484,-27.887 27.887,-27.887 15.403,0 27.887,12.484 27.887,27.887"
       id="path76" />
    <path
       d="m 316.28,430.02 c 12.195,5.0508 17.984,19.031 12.934,31.227 -5.0508,12.195 -19.031,17.988 -31.227,12.938 -12.195,-5.0547 -17.988,-19.035 -12.938,-31.23 5.05,-12.195 19.035,-17.988 31.23,-12.934"
       id="path78" />
    <path
       d="m 422.88,429.38 c 10.996,0.27734 19.688,9.4141 19.414,20.41 -0.27344,11 -9.4141,19.691 -20.41,19.418 -11,-0.27734 -19.691,-9.4141 -19.418,-20.414 0.27734,-10.996 9.4141,-19.688 20.414,-19.414"
       id="path80" />
    <path
       d="m 524.79,373.02 c 0,8.7969 -7.1328,15.93 -15.934,15.93 -8.7969,0 -15.93,-7.1328 -15.93,-15.93 0,-8.8008 7.1328,-15.934 15.93,-15.934 8.8008,0 15.934,7.1328 15.934,15.934"
       id="path82" />
    <path
       d="m 526.11,247.08 c -15.41,0 -15.41,23.902 0,23.902 15.41,-0.004 15.41,-23.902 0,-23.902 z"
       id="path84" />
    <path
       d="m 466.05,168.58 c 10.277,0 10.277,-15.934 0,-15.934 -10.277,0.004 -10.277,15.934 0,15.934 z"
       id="path86" />
  </g>
</svg>
