<?xml version="1.0" encoding="UTF-8" standalone="no"?>
<svg
   width="700pt"
   height="700pt"
   version="1.1"
   viewBox="0 0 700 700"
   id="svg8"
   sodipodi:docname="noun-dice.svg"
   inkscape:version="1.2.1 (9c6d41e4, 2022-07-14)"
   xmlns:inkscape="http://www.inkscape.org/namespaces/inkscape"
   xmlns:sodipodi="http://sodipodi.sourceforge.net/DTD/sodipodi-0.dtd"
   xmlns="http://www.w3.org/2000/svg"
   xmlns:svg="http://www.w3.org/2000/svg">
  <defs
     id="defs12" />
  <sodipodi:namedview
     id="namedview10"
     pagecolor="#ffffff"
     bordercolor="#000000"
     borderopacity="0.25"
     inkscape:showpageshadow="2"
     inkscape:pageopacity="0.0"
     inkscape:pagecheckerboard="0"
     inkscape:deskcolor="#d1d1d1"
     inkscape:document-units="pt"
     showgrid="false"
     inkscape:zoom="0.66642857"
     inkscape:cx="466.66667"
     inkscape:cy="466.66667"
     inkscape:window-width="1390"
     inkscape:window-height="772"
     inkscape:window-x="0"
     inkscape:window-y="0"
     inkscape:window-maximized="0"
     inkscape:current-layer="svg8" />
  <g
     id="g6"
     transform="translate(-0.0043521,70.000664)">
    <path
       d="M 380.61,32.203 C 352.048,30.4647 325.454,48.832 317.747,77.57 l -24.855,92.645 10.254,-2.8984 c 40.789,-10.949 83.086,13.5 93.977,54.289 l 37.777,141.14 56.199,15.008 c 32.852,8.8086 66.281,-10.547 75.09,-43.34 l 47.688,-177.64 c 8.8047,-32.852 -10.547,-66.34 -43.398,-75.145 l -177.64,-47.57 c -4.0547,-1.1562 -8.168,-1.7383 -12.227,-1.7383 z m 1.7383,39.977 c 2.7852,0.01172 5.5508,0.40234 8.2305,1.1602 7.8828,2.0938 14.609,7.2422 18.688,14.312 4.0781,7.0664 5.1719,15.469 3.0391,23.348 -2.1133,7.8633 -7.2617,14.566 -14.312,18.629 -7.0547,4.0664 -15.434,5.1562 -23.293,3.0391 -7.8477,-2.1094 -14.539,-7.2461 -18.602,-14.285 -4.0625,-7.0391 -5.1641,-15.406 -3.0664,-23.258 1.7188,-6.4922 5.5156,-12.238 10.812,-16.359 5.293,-4.125 11.797,-6.3984 18.504,-6.4688 z m 119.36,206.5 c 2.7656,0.0156 5.5117,0.40625 8.1719,1.1602 7.8711,2.0938 14.586,7.2344 18.66,14.289 4.0781,7.0547 5.1797,15.441 3.0664,23.312 -2.1133,7.8477 -7.2539,14.543 -14.293,18.605 -7.0391,4.0625 -15.402,5.1641 -23.254,3.0625 -7.8594,-2.1055 -14.562,-7.2539 -18.625,-14.309 -4.0664,-7.0508 -5.1602,-15.434 -3.043,-23.293 1.7383,-6.4688 5.5469,-12.188 10.84,-16.289 5.293,-4.1016 11.781,-6.3594 18.477,-6.4219 z"
       id="path2" />
    <path
       d="m 319.43,180.29 c -4.0547,0 -8.2266,1.1602 -12.34,1.7383 l -177.58,47.57 c -32.852,8.8086 -52.145,42.355 -43.398,75.148 l 47.625,177.64 c 8.8086,32.852 42.297,52.203 75.148,43.398 l 177.58,-47.625 c 32.852,-8.75 52.203,-42.297 43.398,-75.148 l -47.625,-177.64 c -7.6484,-28.684 -34.301,-47.109 -62.809,-45.371 z m -0.57812,39.977 v 0.004 c 6.5625,0.24219 12.875,2.5859 18.004,6.6836 5.1328,4.1016 8.8125,9.7383 10.504,16.086 2.0938,7.8594 0.98438,16.234 -3.0898,23.273 -4.0742,7.043 -10.781,12.176 -18.641,14.27 -7.8477,2.1016 -16.211,1 -23.254,-3.0625 -7.0391,-4.0625 -12.18,-10.754 -14.289,-18.605 -2.1172,-7.8633 -1.0234,-16.242 3.043,-23.297 4.0625,-7.0508 10.766,-12.199 18.625,-14.305 2.957,-0.83984 6.0234,-1.2305 9.0977,-1.1602 z m -162.81,43.688 c 6.5273,0.26172 12.801,2.5977 17.906,6.6758 5.1055,4.0742 8.7812,9.6719 10.484,15.98 2.1172,7.8633 1.0195,16.242 -3.043,23.293 -4.0664,7.0547 -10.766,12.203 -18.629,14.309 -7.8477,2.1016 -16.211,1 -23.254,-3.0625 -7.0391,-4.0625 -12.18,-10.754 -14.289,-18.605 -2.1172,-7.8633 -1.0234,-16.242 3.043,-23.297 4.0625,-7.0508 10.766,-12.199 18.625,-14.305 2.9766,-0.84766 6.0625,-1.2383 9.1562,-1.1602 z m 103.19,59.621 h -0.004 c 6.5469,0.23438 12.848,2.5625 17.977,6.6406 5.1328,4.0742 8.8203,9.6875 10.531,16.016 2.1133,7.8672 1.0117,16.254 -3.0625,23.309 -4.0781,7.0547 -10.793,12.199 -18.664,14.293 -7.8516,2.1016 -16.215,0.99609 -23.254,-3.0664 -7.0391,-4.0625 -12.18,-10.754 -14.293,-18.605 -2.1172,-7.8594 -1.0195,-16.242 3.043,-23.293 4.0664,-7.0547 10.766,-12.199 18.629,-14.309 2.957,-0.83984 6.0234,-1.2305 9.0938,-1.1562 z m 103.3,59.621 c 6.543,0.25 12.836,2.5898 17.953,6.6758 5.1211,4.0898 8.7969,9.707 10.492,16.035 2.0977,7.8594 0.98828,16.234 -3.0859,23.273 -4.0742,7.043 -10.781,12.176 -18.641,14.27 -7.8398,2.0859 -16.191,0.97266 -23.215,-3.0859 -7.0273,-4.0625 -12.16,-10.746 -14.27,-18.582 -2.1172,-7.8633 -1.0234,-16.242 3.0391,-23.297 4.0664,-7.0508 10.766,-12.199 18.629,-14.305 2.957,-0.83984 6.0234,-1.2305 9.0977,-1.1602 z m -162.87,43.57 c 6.5508,0.25391 12.848,2.6016 17.969,6.6992 5.1211,4.0977 8.793,9.7305 10.477,16.07 2.0977,7.8594 0.98828,16.234 -3.0859,23.273 -4.0742,7.043 -10.781,12.176 -18.641,14.27 -7.8477,2.1016 -16.215,1 -23.254,-3.0625 -7.0391,-4.0625 -12.18,-10.754 -14.289,-18.605 -2.1172,-7.8633 -1.0234,-16.242 3.043,-23.297 4.0625,-7.0508 10.766,-12.199 18.625,-14.305 2.9766,-0.84766 6.0625,-1.2383 9.1562,-1.1602 z"
       id="path4" />
  </g>
</svg>
