<?xml version="1.0" encoding="UTF-8" standalone="no"?>
<svg
   width="700pt"
   height="700pt"
   version="1.1"
   viewBox="0 0 700 700"
   id="svg8"
   sodipodi:docname="noun-delete.svg"
   inkscape:version="1.2.1 (9c6d41e4, 2022-07-14)"
   xmlns:inkscape="http://www.inkscape.org/namespaces/inkscape"
   xmlns:sodipodi="http://sodipodi.sourceforge.net/DTD/sodipodi-0.dtd"
   xmlns="http://www.w3.org/2000/svg"
   xmlns:svg="http://www.w3.org/2000/svg">
  <defs
     id="defs12" />
  <sodipodi:namedview
     id="namedview10"
     pagecolor="#ffffff"
     bordercolor="#000000"
     borderopacity="0.25"
     inkscape:showpageshadow="2"
     inkscape:pageopacity="0.0"
     inkscape:pagecheckerboard="0"
     inkscape:deskcolor="#d1d1d1"
     inkscape:document-units="pt"
     showgrid="false"
     inkscape:zoom="0.25285714"
     inkscape:cx="464.68927"
     inkscape:cy="466.66667"
     inkscape:window-width="1309"
     inkscape:window-height="456"
     inkscape:window-x="0"
     inkscape:window-y="0"
     inkscape:window-maximized="0"
     inkscape:current-layer="svg8" />
  <g
     id="g6"
     transform="translate(0.00100577,90.99865)">
    <path
       d="m 263.9,112 2.1445,-12.879 c 3.8398,-23.02 5.7578,-34.531 10.988,-43.453 6.4375,-10.973 16.418,-19.426 28.297,-23.973 9.6641,-3.6953 21.332,-3.6953 44.668,-3.6953 23.34,0 35.004,0 44.668,3.6953 11.879,4.5469 21.859,13 28.297,23.973 5.2344,8.9219 7.1523,20.43 10.988,43.449 L 436.0989,112 h 31.512 c 2.7969,0 4.1953,0 5.3086,0.043 33.508,1.3359 58.336,31.625 53.078,64.742 -0.17578,1.1016 -0.45312,2.4727 -1,5.2109 l -350,0.004 c -0.54688,-2.7422 -0.82031,-4.1133 -0.99609,-5.2109 -5.2617,-33.121 19.566,-63.41 53.074,-64.746 1.1172,-0.043 2.5117,-0.043 5.3086,-0.043 z m 44.098,0 3.1016,-18.602 c 1.8633,-11.176 2.793,-16.762 6.7109,-20.082 3.9141,-3.3164 9.582,-3.3164 20.91,-3.3164 h 22.559 c 11.328,0 16.992,0 20.91,3.3164 3.9141,3.3203 4.8477,8.9062 6.7109,20.082 L 391.9981,112 Z"
       fill-rule="evenodd"
       id="path2" />
    <path
       d="m 196,224 h 308 l -8.4141,159.89 c -2.6445,50.242 -3.9688,75.363 -20.172,90.738 -16.207,15.375 -41.363,15.375 -91.676,15.375 h -67.477 c -50.312,0 -75.469,0 -91.676,-15.375 -16.203,-15.375 -17.527,-40.496 -20.172,-90.738 z"
       id="path4" />
  </g>
</svg>
