<?xml version="1.0" encoding="UTF-8" standalone="no"?>
<svg
   width="700pt"
   height="700pt"
   version="1.1"
   viewBox="0 0 700 700"
   id="svg221"
   sodipodi:docname="noun-eye.svg"
   inkscape:version="1.2.1 (9c6d41e4, 2022-07-14)"
   xmlns:inkscape="http://www.inkscape.org/namespaces/inkscape"
   xmlns:sodipodi="http://sodipodi.sourceforge.net/DTD/sodipodi-0.dtd"
   xmlns="http://www.w3.org/2000/svg"
   xmlns:svg="http://www.w3.org/2000/svg">
  <defs
     id="defs225" />
  <sodipodi:namedview
     id="namedview223"
     pagecolor="#ffffff"
     bordercolor="#000000"
     borderopacity="0.25"
     inkscape:showpageshadow="2"
     inkscape:pageopacity="0.0"
     inkscape:pagecheckerboard="0"
     inkscape:deskcolor="#d1d1d1"
     inkscape:document-units="pt"
     showgrid="false"
     inkscape:zoom="0.23281773"
     inkscape:cx="-687.23288"
     inkscape:cy="373.68288"
     inkscape:window-width="1309"
     inkscape:window-height="456"
     inkscape:window-x="0"
     inkscape:window-y="0"
     inkscape:window-maximized="0"
     inkscape:current-layer="svg221" />
  <path
     d="M -0.2347018,435.12649 C -0.2347018,240.55165 155.42516,104.34927 350,104.34927 c 194.57484,0 350.23471,136.20238 350.23471,330.77722 -165.38862,214.03232 -535.0808,214.03232 -700.4694118,0 z M 58.82154,415.0283 c 70.41941,79.97999 178.95325,122.24998 291.18124,122.24998 112.22799,0 220.75905,-42.26999 291.18124,-122.24998 -6.87307,-100.18102 -65.05054,-180.64884 -151.67109,-221.96819 22.34554,29.40303 35.61415,66.08734 35.61415,105.87095 0,96.71759 -78.39976,175.11734 -175.11735,175.11734 -96.7176,0 -175.11735,-78.39975 -175.11735,-175.11734 0,-6.53647 0.3583,-12.99163 1.05865,-19.33796 L 350.01211,298.93106 291.63967,167.59304 C 161.52886,189.80237 67.684034,286.08634 58.83088,415.03664 Z"
     fill-rule="evenodd"
     id="path219"
     style="stroke-width:1.38982" />
</svg>
