<?xml version="1.0" encoding="UTF-8" standalone="no"?>
<svg
   width="700pt"
   height="700pt"
   version="1.1"
   viewBox="0 0 700 700"
   id="svg4"
   sodipodi:docname="noun-edit.svg"
   inkscape:version="1.2.1 (9c6d41e4, 2022-07-14)"
   xmlns:inkscape="http://www.inkscape.org/namespaces/inkscape"
   xmlns:sodipodi="http://sodipodi.sourceforge.net/DTD/sodipodi-0.dtd"
   xmlns="http://www.w3.org/2000/svg"
   xmlns:svg="http://www.w3.org/2000/svg">
  <defs
     id="defs8" />
  <sodipodi:namedview
     id="namedview6"
     pagecolor="#ffffff"
     bordercolor="#000000"
     borderopacity="0.25"
     inkscape:showpageshadow="2"
     inkscape:pageopacity="0.0"
     inkscape:pagecheckerboard="0"
     inkscape:deskcolor="#d1d1d1"
     inkscape:document-units="pt"
     showgrid="false"
     inkscape:zoom="0.2696855"
     inkscape:cx="14.832091"
     inkscape:cy="415.29855"
     inkscape:window-width="1309"
     inkscape:window-height="456"
     inkscape:window-x="0"
     inkscape:window-y="0"
     inkscape:window-maximized="0"
     inkscape:current-layer="svg4" />
  <path
     d="m 264.25806,47.291531 c 4.46177,-7.733011 6.69266,-11.594163 8.89142,-14.66757 21.36435,-29.811522 60.81331,-40.3811239 94.22308,-25.2426644 3.43749,1.5551689 7.304,3.7860564 15.03138,8.2478314 7.72765,4.467129 11.59416,6.698017 14.66208,8.896779 29.81701,21.364352 40.38661,60.813308 25.24815,94.217583 -1.56052,3.44285 -3.79141,7.304 -8.25318,15.03687 L 390.03604,175.39019 240.23023,88.900398 Z M 361.20488,225.32322 206.90983,476.21226 c -13.37997,21.75699 -20.07249,32.63686 -29.70444,40.68178 -9.62604,8.0441 -21.52085,12.68819 -45.31516,21.98763 L 65.275245,564.90686 54.506854,494.20488 c -3.845089,-25.25364 -5.770242,-37.88252 -3.619804,-50.2437 2.150439,-12.35569 8.231769,-23.59112 20.384135,-46.06062 L 211.39838,138.82931 Z M 661.14599,622.59967 H 55.717437 L 36.497483,699.47949 619.61716,682.0717 c 30.2728,-0.90094 51.11135,-30.73957 41.53432,-59.47203 z"
     fill-rule="evenodd"
     id="path2"
     style="stroke-width:1.37285" />
</svg>
