<?xml version="1.0" encoding="UTF-8" standalone="no"?>
<svg
   width="700pt"
   height="700pt"
   version="1.1"
   viewBox="0 0 700 700"
   id="svg4"
   sodipodi:docname="noun-eye-closed.svg"
   inkscape:version="1.2.1 (9c6d41e4, 2022-07-14)"
   xmlns:inkscape="http://www.inkscape.org/namespaces/inkscape"
   xmlns:sodipodi="http://sodipodi.sourceforge.net/DTD/sodipodi-0.dtd"
   xmlns="http://www.w3.org/2000/svg"
   xmlns:svg="http://www.w3.org/2000/svg">
  <defs
     id="defs8" />
  <sodipodi:namedview
     id="namedview6"
     pagecolor="#ffffff"
     bordercolor="#000000"
     borderopacity="0.25"
     inkscape:showpageshadow="2"
     inkscape:pageopacity="0.0"
     inkscape:pagecheckerboard="0"
     inkscape:deskcolor="#d1d1d1"
     inkscape:document-units="pt"
     showgrid="false"
     inkscape:zoom="0.3645002"
     inkscape:cx="344.30708"
     inkscape:cy="710.56202"
     inkscape:window-width="1309"
     inkscape:window-height="456"
     inkscape:window-x="0"
     inkscape:window-y="0"
     inkscape:window-maximized="0"
     inkscape:current-layer="svg4" />
  <path
     d="m 646.20749,479.26196 c 18.07621,-11.0445 35.48157,-23.06163 52.15935,-35.98651 l -38.03977,-47.85057 c -86.04895,66.49429 -193.97502,106.05181 -311.13128,106.05181 -117.16498,0 -225.08669,-39.56334 -311.145814,-106.05763 L 0.0102091,443.27545 c 16.5977419,12.85779 33.9187079,24.82385 51.8974119,35.8279 l -26.142244,32.39514 c -20.0654281,24.87478 -10.260158,62.072 19.462985,73.81673 l 65.397078,-74.85136 c 23.04417,10.62962 46.92362,19.75838 71.50301,27.27874 l -21.95279,64.11361 c -10.35111,30.23421 11.59018,61.83917 43.53597,62.70937 L 246.7019,553.41484 c 22.62363,4.10403 45.70709,6.87236 69.16599,8.22509 l 1.52343,79.14851 c 0.61389,31.95713 32.03716,54.14856 62.35722,44.04237 l 2.46128,-123.17341 c 23.46472,-1.3415 46.554,-4.09836 69.17181,-8.19104 l 27.06919,70.13805 c 11.50492,29.81947 48.62327,39.92712 73.65667,20.0596 L 515.96672,537.82903 c 24.5794,-7.50319 48.45302,-16.62102 71.49719,-27.2278 l 36.4478,41.77374 c 21.00984,24.08463 59.34355,20.88906 76.07808,-6.34369 z"
     id="path2"
     style="stroke-width:1.45518" />
</svg>
