<?xml version="1.0" encoding="UTF-8" standalone="no"?>
<svg
   width="700pt"
   height="700pt"
   version="1.1"
   viewBox="0 0 700 700"
   id="svg4"
   sodipodi:docname="noun-checkbox-checked.svg"
   inkscape:version="1.2.1 (9c6d41e4, 2022-07-14)"
   xmlns:inkscape="http://www.inkscape.org/namespaces/inkscape"
   xmlns:sodipodi="http://sodipodi.sourceforge.net/DTD/sodipodi-0.dtd"
   xmlns="http://www.w3.org/2000/svg"
   xmlns:svg="http://www.w3.org/2000/svg">
  <defs
     id="defs8" />
  <sodipodi:namedview
     id="namedview6"
     pagecolor="#ffffff"
     bordercolor="#000000"
     borderopacity="0.25"
     inkscape:showpageshadow="2"
     inkscape:pageopacity="0.0"
     inkscape:pagecheckerboard="0"
     inkscape:deskcolor="#d1d1d1"
     inkscape:document-units="pt"
     showgrid="false"
     inkscape:zoom="0.31753262"
     inkscape:cx="1.5746414"
     inkscape:cy="144.86701"
     inkscape:window-width="1309"
     inkscape:window-height="456"
     inkscape:window-x="0"
     inkscape:window-y="0"
     inkscape:window-maximized="0"
     inkscape:current-layer="svg4" />
  <path
     d="M 34.279233,89.362188 C 0.63446063,139.71081 0.63446063,209.81314 0.63446063,350 c 0,140.18686 0,210.29989 33.64477237,260.63781 14.566448,21.80003 33.282924,40.51633 55.082955,55.08296 C 139.71081,699.36554 209.81314,699.36554 350,699.36554 c 140.18686,0 210.29989,0 260.63781,-33.64477 21.80003,-14.56646 40.51633,-33.28293 55.08296,-55.08296 C 699.36554,560.28919 699.36554,490.18686 699.36554,350 c 0,-140.18686 0,-210.29989 -33.64477,-260.637812 C 651.15431,67.562157 632.43784,48.84586 610.63781,34.279233 560.28919,0.63446063 490.18686,0.63446063 350,0.63446063 c -140.18686,0 -210.29989,0 -260.637812,33.64477237 C 67.562157,48.845681 48.84586,67.562157 34.279233,89.362188 Z M 589.04812,239.60058 325.23744,524.69435 112.94116,287.62125 c 16.40456,-16.40456 24.60748,-24.60748 33.9781,-28.40955 10.70198,-4.34485 22.57364,-4.83914 33.60378,-1.4065 9.6576,3.00797 18.522,10.49306 36.23475,25.4702 l 108.48144,91.68847 261.84991,-237.0731 c 14.92153,14.92152 22.37935,22.37934 26.13152,30.6573 5.65393,12.47752 5.9254,26.7233 0.75895,39.40938 -3.41884,8.41129 -10.59057,16.1609 -24.91941,31.64659 z"
     fill-rule="evenodd"
     id="path2"
     style="stroke-width:1.7825" />
</svg>
