<?xml version="1.0" encoding="UTF-8" standalone="no"?>
<svg
   width="700pt"
   height="700pt"
   version="1.1"
   viewBox="0 0 700 700"
   id="svg4"
   sodipodi:docname="noun-checkbox-indeterminate.svg"
   inkscape:version="1.2.1 (9c6d41e4, 2022-07-14)"
   xmlns:inkscape="http://www.inkscape.org/namespaces/inkscape"
   xmlns:sodipodi="http://sodipodi.sourceforge.net/DTD/sodipodi-0.dtd"
   xmlns="http://www.w3.org/2000/svg"
   xmlns:svg="http://www.w3.org/2000/svg">
  <defs
     id="defs8" />
  <sodipodi:namedview
     id="namedview6"
     pagecolor="#ffffff"
     bordercolor="#000000"
     borderopacity="0.25"
     inkscape:showpageshadow="2"
     inkscape:pageopacity="0.0"
     inkscape:pagecheckerboard="0"
     inkscape:deskcolor="#d1d1d1"
     inkscape:document-units="pt"
     showgrid="false"
     inkscape:zoom="0.30165419"
     inkscape:cx="435.92963"
     inkscape:cy="427.642"
     inkscape:window-width="1309"
     inkscape:window-height="456"
     inkscape:window-x="0"
     inkscape:window-y="0"
     inkscape:window-maximized="0"
     inkscape:current-layer="svg4" />
  <path
     d="M 33.494146,88.714073 C -0.23428994,139.1879 -0.23428994,209.46455 -0.23428994,350 c 0,140.53545 0,210.82283 33.72843594,261.28593 14.60267,21.85424 33.365687,40.61708 55.219927,55.21992 C 139.1879,700.23429 209.46455,700.23429 350,700.23429 c 140.53545,0 210.82283,0 261.28593,-33.72844 21.85424,-14.60267 40.61708,-33.36568 55.21992,-55.21992 C 700.23429,560.8121 700.23429,490.53545 700.23429,350 c 0,-140.53545 0,-210.82283 -33.72844,-261.285927 C 651.90318,66.859833 633.14017,48.096995 611.28593,33.494146 560.8121,-0.23428994 490.53545,-0.23428994 350,-0.23428994 c -140.53545,0 -210.82283,0 -261.285927,33.72843594 -21.85424,14.60267 -40.617078,33.365687 -55.219927,55.219927 z M 126.00923,324.4468 c -8.76707,14.7492 -6.2264,35.0329 -1.15872,75.59637 h 450.30813 c 5.06757,-40.56168 7.60842,-60.84699 -1.15873,-75.59637 -3.197,-5.37475 -7.37111,-10.10727 -12.31306,-13.94651 -13.54159,-10.52613 -33.98755,-10.52613 -74.86373,-10.52613 H 213.18946 c -40.87618,0 -61.32053,0 -74.86373,10.52613 -4.94195,3.83906 -9.11623,8.57176 -12.31306,13.94651 z"
     fill-rule="evenodd"
     id="path2"
     style="stroke-width:1.78694" />
</svg>
