<?xml version="1.0" encoding="UTF-8" standalone="no"?>
<svg
   width="700pt"
   height="700pt"
   version="1.1"
   viewBox="0 0 700 700"
   id="svg369"
   sodipodi:docname="noun-more.svg"
   inkscape:version="1.2.1 (9c6d41e4, 2022-07-14)"
   xmlns:inkscape="http://www.inkscape.org/namespaces/inkscape"
   xmlns:sodipodi="http://sodipodi.sourceforge.net/DTD/sodipodi-0.dtd"
   xmlns="http://www.w3.org/2000/svg"
   xmlns:svg="http://www.w3.org/2000/svg">
  <defs
     id="defs373" />
  <sodipodi:namedview
     id="namedview371"
     pagecolor="#ffffff"
     bordercolor="#000000"
     borderopacity="0.25"
     inkscape:showpageshadow="2"
     inkscape:pageopacity="0.0"
     inkscape:pagecheckerboard="0"
     inkscape:deskcolor="#d1d1d1"
     inkscape:document-units="pt"
     showgrid="false"
     inkscape:zoom="0.66642857"
     inkscape:cx="430.6538"
     inkscape:cy="7.5026795"
     inkscape:window-width="1390"
     inkscape:window-height="772"
     inkscape:window-x="0"
     inkscape:window-y="0"
     inkscape:window-maximized="0"
     inkscape:current-layer="svg369" />
  <g
     id="g367"
     transform="matrix(1.3885316,0,0,1.3885316,-135.98607,-38.788853)">
    <path
       d="m 427,105 c 0,42.527 -34.473,77 -77,77 -42.527,0 -77,-34.473 -77,-77 0,-42.527 34.473,-77 77,-77 42.527,0 77,34.473 77,77 z"
       id="path361" />
    <path
       d="m 420,294 c 0,38.66 -31.34,70 -70,70 -38.66,0 -70,-31.34 -70,-70 0,-38.66 31.34,-70 70,-70 38.66,0 70,31.34 70,70 z"
       id="path363" />
    <path
       d="m 350,532 c 34.793,0 63,-28.207 63,-63 0,-34.793 -28.207,-63 -63,-63 -34.793,0 -63,28.207 -63,63 0,34.793 28.207,63 63,63 z"
       id="path365" />
  </g>
</svg>
