<?xml version="1.0" encoding="UTF-8" standalone="no"?>
<svg
   width="700pt"
   height="700pt"
   version="1.1"
   viewBox="0 0 700 700"
   id="svg4"
   sodipodi:docname="noun-eye-closed.svg"
   inkscape:version="1.2.1 (9c6d41e4, 2022-07-14)"
   xmlns:inkscape="http://www.inkscape.org/namespaces/inkscape"
   xmlns:sodipodi="http://sodipodi.sourceforge.net/DTD/sodipodi-0.dtd"
   xmlns="http://www.w3.org/2000/svg"
   xmlns:svg="http://www.w3.org/2000/svg">
  <defs
     id="defs8" />
  <sodipodi:namedview
     id="namedview6"
     pagecolor="#ffffff"
     bordercolor="#000000"
     borderopacity="0.25"
     inkscape:showpageshadow="2"
     inkscape:pageopacity="0.0"
     inkscape:pagecheckerboard="0"
     inkscape:deskcolor="#d1d1d1"
     inkscape:document-units="pt"
     showgrid="false"
     inkscape:zoom="0.25285714"
     inkscape:cx="464.68927"
     inkscape:cy="466.66667"
     inkscape:window-width="1309"
     inkscape:window-height="456"
     inkscape:window-x="0"
     inkscape:window-y="0"
     inkscape:window-maximized="0"
     inkscape:current-layer="svg4" />
  <path
     d="m 553.55435,307.32754 c 12.422,-7.5898 24.383,-15.848 35.844,-24.73 l -26.141,-32.883 c -59.133,45.695 -133.3,72.879 -213.81,72.879 -80.516,0 -154.68,-27.188 -213.82,-72.883 l -26.141,32.887 c 11.406,8.8359 23.309,17.059 35.664,24.621 l -17.965,22.262 c -13.789,17.094 -7.0508,42.656 13.375,50.727 l 44.941,-51.438 c 15.836,7.3047 32.246,13.578 49.137,18.746 l -15.086,44.059 c -7.1133,20.777 7.9648,42.496 29.918,43.094 l 29.543,-76.383 c 15.547,2.8203 31.41,4.7227 47.531,5.6523 l 1.0469,54.391 c 0.42187,21.961 22.016,37.211 42.852,30.266 l 1.6914,-84.645 c 16.125,-0.92188 31.992,-2.8164 47.535,-5.6289 l 18.602,48.199 c 7.9062,20.492 33.414,27.438 50.617,13.785 l -24.836,-72.73 c 16.891,-5.1562 33.297,-11.422 49.133,-18.711 l 25.047,28.707 c 14.438,16.551 40.781,14.355 52.281,-4.3594 z"
     id="path2" />
</svg>
