<?xml version="1.0" encoding="UTF-8" standalone="no"?>
<svg
   width="700pt"
   height="700pt"
   version="1.1"
   viewBox="0 0 700 700"
   id="svg4"
   sodipodi:docname="noun-refresh.svg"
   inkscape:version="1.2.1 (9c6d41e4, 2022-07-14)"
   xmlns:inkscape="http://www.inkscape.org/namespaces/inkscape"
   xmlns:sodipodi="http://sodipodi.sourceforge.net/DTD/sodipodi-0.dtd"
   xmlns="http://www.w3.org/2000/svg"
   xmlns:svg="http://www.w3.org/2000/svg">
  <defs
     id="defs8" />
  <sodipodi:namedview
     id="namedview6"
     pagecolor="#ffffff"
     bordercolor="#000000"
     borderopacity="0.25"
     inkscape:showpageshadow="2"
     inkscape:pageopacity="0.0"
     inkscape:pagecheckerboard="0"
     inkscape:deskcolor="#d1d1d1"
     inkscape:document-units="pt"
     showgrid="false"
     inkscape:zoom="0.66642857"
     inkscape:cx="466.66667"
     inkscape:cy="466.66667"
     inkscape:window-width="1390"
     inkscape:window-height="772"
     inkscape:window-x="0"
     inkscape:window-y="0"
     inkscape:window-maximized="0"
     inkscape:current-layer="svg4" />
  <path
     d="m 569.97367,318.98083 -209.61,56.164 c -6.5195,-11.742 -9.7773,-17.613 -11.434,-22.629 -8.8008,-26.68 3.5273,-55.754 28.828,-67.973 4.7578,-2.2969 11.242,-4.0352 24.215,-7.5117 l 7.0781,-1.8945 c -28.957,-18.93 -65.539,-25.918 -101.58,-16.262 -67.219,18.012 -107.11,87.102 -89.098,154.32 18.012,67.215 87.102,107.11 154.32,89.094 45.945,-12.312 79.121,-48.488 89.766,-91.621 l 81.586,20.055 c -17.738,71.887 -73.035,132.18 -149.61,152.7 -112.03,30.02 -227.18,-36.465 -257.2,-148.49 -30.02,-112.03 36.465,-227.18 148.49,-257.2 58.773,-15.75 118.4,-4.9375 166.15,25.078 l -2.2383,-8.3516 c -3.4766,-12.973 -5.2148,-19.457 -5.6016,-24.727 -2.0703,-28.016 16.945,-53.23 44.449,-58.949 5.1758,-1.0742 11.887,-1.1875 25.316,-1.4141 z m -103.06,-60.07 -1.0469,1 1.2266,-0.32422 z"
     fill-rule="evenodd"
     id="path2" />
</svg>
