<?xml version="1.0" encoding="UTF-8" standalone="no"?>
<svg
   width="700pt"
   height="700pt"
   version="1.1"
   viewBox="0 0 700 700"
   id="svg8"
   sodipodi:docname="noun-radio-button-on.svg"
   inkscape:version="1.2.1 (9c6d41e4, 2022-07-14)"
   xmlns:inkscape="http://www.inkscape.org/namespaces/inkscape"
   xmlns:sodipodi="http://sodipodi.sourceforge.net/DTD/sodipodi-0.dtd"
   xmlns="http://www.w3.org/2000/svg"
   xmlns:svg="http://www.w3.org/2000/svg">
  <defs
     id="defs12" />
  <sodipodi:namedview
     id="namedview10"
     pagecolor="#ffffff"
     bordercolor="#000000"
     borderopacity="0.25"
     inkscape:showpageshadow="2"
     inkscape:pageopacity="0.0"
     inkscape:pagecheckerboard="0"
     inkscape:deskcolor="#d1d1d1"
     inkscape:document-units="pt"
     showgrid="false"
     inkscape:zoom="3.7356744"
     inkscape:cx="864.63638"
     inkscape:cy="477.28999"
     inkscape:window-width="1309"
     inkscape:window-height="456"
     inkscape:window-x="0"
     inkscape:window-y="0"
     inkscape:window-maximized="0"
     inkscape:current-layer="svg8" />
  <g
     id="g6"
     transform="matrix(1.666066,0,0,1.666066,-233.1231,-116.49848)">
    <path
       d="m 350,406 c 69.59,0 126,-56.41 126,-126 0,-69.59 -56.41,-126 -126,-126 -69.59,0 -126,56.41 -126,126 0,69.59 56.41,126 126,126 z"
       id="path2" />
    <path
       d="M 560,280 C 560,395.98 465.98,490 350,490 234.02,490 140,395.98 140,280 140,164.02 234.02,70 350,70 c 115.98,0 210,94.02 210,210 z m -42,0 c 0,92.785 -75.215,168 -168,168 -92.785,0 -168,-75.215 -168,-168 0,-92.785 75.215,-168 168,-168 92.785,0 168,75.215 168,168 z"
       fill-rule="evenodd"
       id="path4" />
  </g>
</svg>
