<?xml version="1.0" encoding="UTF-8" standalone="no"?>
<svg
   width="700pt"
   height="700pt"
   version="1.1"
   viewBox="0 0 700 700"
   id="svg4"
   sodipodi:docname="noun-close.svg"
   inkscape:version="1.2.1 (9c6d41e4, 2022-07-14)"
   xmlns:inkscape="http://www.inkscape.org/namespaces/inkscape"
   xmlns:sodipodi="http://sodipodi.sourceforge.net/DTD/sodipodi-0.dtd"
   xmlns="http://www.w3.org/2000/svg"
   xmlns:svg="http://www.w3.org/2000/svg">
  <defs
     id="defs8" />
  <sodipodi:namedview
     id="namedview6"
     pagecolor="#ffffff"
     bordercolor="#000000"
     borderopacity="0.25"
     inkscape:showpageshadow="2"
     inkscape:pageopacity="0.0"
     inkscape:pagecheckerboard="0"
     inkscape:deskcolor="#d1d1d1"
     inkscape:document-units="pt"
     showgrid="false"
     inkscape:zoom="0.25285714"
     inkscape:cx="371.75142"
     inkscape:cy="466.66667"
     inkscape:window-width="1309"
     inkscape:window-height="456"
     inkscape:window-x="0"
     inkscape:window-y="0"
     inkscape:window-maximized="0"
     inkscape:current-layer="svg4" />
  <path
     d="M 33.494146,88.714073 C -0.23428988,139.1879 -0.23428988,209.46455 -0.23428988,350 c 0,140.53545 0,210.82283 33.72843588,261.28593 14.60267,21.85424 33.365687,40.61708 55.219927,55.21992 C 139.1879,700.23429 209.46455,700.23429 350,700.23429 c 140.53545,0 210.82283,0 261.28593,-33.72844 21.85424,-14.60267 40.61708,-33.36568 55.21992,-55.21992 C 700.23429,560.8121 700.23429,490.53545 700.23429,350 c 0,-140.53545 0,-210.82283 -33.72844,-261.285927 C 651.90318,66.859833 633.14017,48.096995 611.28593,33.494146 560.8121,-0.23428988 490.53545,-0.23428988 350,-0.23428988 c -140.53545,0 -210.82283,0 -261.285927,33.72843588 -21.85424,14.60267 -40.617078,33.365687 -55.219927,55.219927 z M 155.424,226.17599 l 70.75914,-70.75913 123.83652,130.90743 123.82222,-130.90743 70.75913,70.75913 -132.71581,125.54662 72.30841,76.43265 c 16.94802,17.91762 25.42811,26.8809 28.96089,36.89668 3.96485,11.22411 3.79724,23.50179 -0.47465,34.61475 -3.81815,9.91197 -12.53644,18.63061 -29.97944,36.07469 L 350.02748,410.25015 217.34741,535.76104 164.27717,482.69079 288.15479,351.72797 Z"
     fill-rule="evenodd"
     id="path2"
     style="stroke-width:1.78694" />
</svg>
