<?xml version="1.0" encoding="UTF-8" standalone="no"?>
<svg
   width="700pt"
   height="700pt"
   version="1.1"
   viewBox="0 0 700 700"
   id="svg4"
   sodipodi:docname="noun-lock.svg"
   inkscape:version="1.2.1 (9c6d41e4, 2022-07-14)"
   xmlns:inkscape="http://www.inkscape.org/namespaces/inkscape"
   xmlns:sodipodi="http://sodipodi.sourceforge.net/DTD/sodipodi-0.dtd"
   xmlns="http://www.w3.org/2000/svg"
   xmlns:svg="http://www.w3.org/2000/svg">
  <defs
     id="defs8" />
  <sodipodi:namedview
     id="namedview6"
     pagecolor="#ffffff"
     bordercolor="#000000"
     borderopacity="0.25"
     inkscape:showpageshadow="2"
     inkscape:pageopacity="0.0"
     inkscape:pagecheckerboard="0"
     inkscape:deskcolor="#d1d1d1"
     inkscape:document-units="pt"
     showgrid="false"
     inkscape:zoom="0.66642857"
     inkscape:cx="466.66667"
     inkscape:cy="466.66667"
     inkscape:window-width="1390"
     inkscape:window-height="772"
     inkscape:window-x="0"
     inkscape:window-y="0"
     inkscape:window-maximized="0"
     inkscape:current-layer="svg4" />
  <path
     d="m 350,139.9985 c -61.855,0 -112,50.145 -112,112 v 71.027 c -21.551,1.5938 -35.488,5.6445 -45.504,15.961 -16.496,16.988 -15.699,44.094 -14.105,98.305 l 3.6094,122.71 h 336 l 3.6094,-122.71 c 1.5938,-54.211 2.3906,-81.316 -14.105,-98.305 -10.02,-10.316 -23.957,-14.367 -45.504,-15.961 v -71.027 c 0,-61.855 -50.145,-112 -112,-112 z m 56,112 v 70 H 294 v -70 c 0,-30.93 25.074,-56 56,-56 30.926,0 56,25.07 56,56 z m -56,210 c 15.465,0 28,-12.535 28,-28 0,-15.465 -12.535,-28 -28,-28 -15.465,0 -28,12.535 -28,28 0,15.465 12.535,28 28,28 z"
     fill-rule="evenodd"
     id="path2" />
</svg>
