<?xml version="1.0" encoding="UTF-8" standalone="no"?>
<svg
   width="700pt"
   height="700pt"
   version="1.1"
   viewBox="0 0 700 700"
   id="svg4"
   sodipodi:docname="noun-refresh.svg"
   inkscape:version="1.2.1 (9c6d41e4, 2022-07-14)"
   xmlns:inkscape="http://www.inkscape.org/namespaces/inkscape"
   xmlns:sodipodi="http://sodipodi.sourceforge.net/DTD/sodipodi-0.dtd"
   xmlns="http://www.w3.org/2000/svg"
   xmlns:svg="http://www.w3.org/2000/svg">
  <defs
     id="defs8" />
  <sodipodi:namedview
     id="namedview6"
     pagecolor="#ffffff"
     bordercolor="#000000"
     borderopacity="0.25"
     inkscape:showpageshadow="2"
     inkscape:pageopacity="0.0"
     inkscape:pagecheckerboard="0"
     inkscape:deskcolor="#d1d1d1"
     inkscape:document-units="pt"
     showgrid="false"
     inkscape:zoom="0.24188455"
     inkscape:cx="-700.74752"
     inkscape:cy="1045.9535"
     inkscape:window-width="1390"
     inkscape:window-height="772"
     inkscape:window-x="0"
     inkscape:window-y="0"
     inkscape:window-maximized="0"
     inkscape:current-layer="svg4" />
  <path
     d="m 669.76628,304.90876 -304.70106,81.6432 c -9.47712,-17.06884 -14.21284,-25.60326 -16.62111,-32.89481 -12.79335,-38.78357 5.12748,-81.04719 41.90602,-98.80943 6.91621,-3.3389 16.34202,-5.86579 35.20031,-10.91943 l 10.28913,-2.75396 C 393.74602,213.6566 340.56834,203.49845 288.17708,217.53496 190.46371,243.71823 132.47587,344.1514 158.65914,441.86332 184.84242,539.57088 285.27558,597.56453 382.9875,571.37545 449.77578,553.47802 498.00231,500.89052 513.47649,438.18993 l 118.59806,29.15309 C 606.28958,571.84207 525.90671,659.48742 414.59292,689.31646 251.73971,732.95524 84.351102,636.30885 40.712316,473.46292 -2.926469,310.60972 93.719922,143.2211 256.56586,99.582319 342.00164,76.68722 428.67885,92.404887 498.09098,136.03713 l -3.25372,-12.14036 c -5.05379,-18.85829 -7.58053,-28.283807 -8.14281,-35.94458 -3.0095,-40.725656 24.63222,-77.378166 64.61361,-85.6916309 7.52384,-1.56151843 17.27962,-1.72621778 36.80078,-2.05561647 z m -149.8139,-87.32118 -1.52183,1.45366 1.78306,-0.4713 z"
     fill-rule="evenodd"
     id="path2"
     style="stroke-width:1.45366" />
</svg>
