<?xml version="1.0" encoding="UTF-8" standalone="no"?>
<svg
   width="700pt"
   height="700pt"
   version="1.1"
   viewBox="0 0 700 700"
   id="svg4"
   sodipodi:docname="noun-edit.svg"
   inkscape:version="1.2.1 (9c6d41e4, 2022-07-14)"
   xmlns:inkscape="http://www.inkscape.org/namespaces/inkscape"
   xmlns:sodipodi="http://sodipodi.sourceforge.net/DTD/sodipodi-0.dtd"
   xmlns="http://www.w3.org/2000/svg"
   xmlns:svg="http://www.w3.org/2000/svg">
  <defs
     id="defs8" />
  <sodipodi:namedview
     id="namedview6"
     pagecolor="#ffffff"
     bordercolor="#000000"
     borderopacity="0.25"
     inkscape:showpageshadow="2"
     inkscape:pageopacity="0.0"
     inkscape:pagecheckerboard="0"
     inkscape:deskcolor="#d1d1d1"
     inkscape:document-units="pt"
     showgrid="false"
     inkscape:zoom="0.25285714"
     inkscape:cx="464.68927"
     inkscape:cy="466.66667"
     inkscape:window-width="1309"
     inkscape:window-height="456"
     inkscape:window-x="0"
     inkscape:window-y="0"
     inkscape:window-maximized="0"
     inkscape:current-layer="svg4" />
  <path
     d="m 287.54474,129.50423 c 3.25,-5.6328 4.875,-8.4453 6.4766,-10.684 15.562,-21.715 44.297,-29.414 68.633,-18.387 2.5039,1.1328 5.3203,2.7578 10.949,6.0078 5.6289,3.2539 8.4453,4.8789 10.68,6.4805 21.719,15.562 29.418,44.297 18.391,68.629 -1.1367,2.5078 -2.7617,5.3203 -6.0117,10.953 l -17.5,30.309 -109.12,-63 z m 70.617,129.68 -112.39,182.75 c -9.7461,15.848 -14.621,23.773 -21.637,29.633 -7.0117,5.8594 -15.676,9.2422 -33.008,16.016 l -48.523,18.957 -7.8438,-51.5 c -2.8008,-18.395 -4.2031,-27.594 -2.6367,-36.598 1.5664,-9 5.9961,-17.184 14.848,-33.551 l 102.07,-188.71 z m 218.48,289.38 h -441 l -14,56 424.75,-12.68 c 22.051,-0.65625 37.23,-22.391 30.254,-43.32 z"
     fill-rule="evenodd"
     id="path2" />
</svg>
