<?xml version="1.0" encoding="UTF-8" standalone="no"?>
<svg
   width="700pt"
   height="700pt"
   version="1.1"
   viewBox="0 0 700 700"
   id="svg133"
   sodipodi:docname="noun-random.svg"
   inkscape:version="1.2.1 (9c6d41e4, 2022-07-14)"
   xmlns:inkscape="http://www.inkscape.org/namespaces/inkscape"
   xmlns:sodipodi="http://sodipodi.sourceforge.net/DTD/sodipodi-0.dtd"
   xmlns="http://www.w3.org/2000/svg"
   xmlns:svg="http://www.w3.org/2000/svg">
  <sodipodi:namedview
     id="namedview135"
     pagecolor="#ffffff"
     bordercolor="#000000"
     borderopacity="0.25"
     inkscape:showpageshadow="2"
     inkscape:pageopacity="0.0"
     inkscape:pagecheckerboard="0"
     inkscape:deskcolor="#d1d1d1"
     inkscape:document-units="pt"
     showgrid="false"
     inkscape:zoom="0.44305705"
     inkscape:cx="106.08115"
     inkscape:cy="334.04276"
     inkscape:window-width="1390"
     inkscape:window-height="772"
     inkscape:window-x="0"
     inkscape:window-y="0"
     inkscape:window-maximized="0"
     inkscape:current-layer="g131" />
  <defs
     id="defs59" />
  <g
     id="g131">
    <path
       d="m 480.15829,432.96954 c 58.293,-6.1172 84.219,-66.738 63.984,-118.24 -28.145,-71.605 -144.72,-76.758 -168.77,40.207 -36.258,176.3 -220.35,160.02 -265.17,48.508 -33.718996,-83.887 15.809,-178.32 109.64,-185.89 l 0.0117,-28.699 c -0.0195,-12.469 13.617,-20.609 24.664,-14.219 l 92.031,53.141 c 10.941,6.125 11.305,22.105 0.19141,28.547 l -91.23,52.668 c -10.754,7.2891 -25.695,-0.3125 -25.695,-13.645 l 0.0117,-28.059 c -57.41,7.3008 -84.703,65.863 -63.832,117.8 28.52,70.938 146.79,78.062 171.06,-40.016 36.121,-175.58 218.88,-160.75 263.07,-48.324 32.773,83.445 -15.344,179.64 -109.95,185.88 l 0.008,28.5 c 0,13.328 -14.934,20.926 -25.695,13.637 l -91.23,-52.668 c -11.113,-6.4375 -10.75,-22.422 0.19922,-28.547 l 92.031,-53.133 c 11.047,-6.3945 24.684,1.7539 24.664,14.215 l 0.008,28.336 z"
       fill-rule="evenodd"
       id="path61" />
  </g>
</svg>
