<?xml version="1.0" encoding="UTF-8" standalone="no"?>
<svg
   width="700pt"
   height="700pt"
   version="1.1"
   viewBox="0 0 700 700"
   id="svg10"
   sodipodi:docname="noun-menu.svg"
   inkscape:version="1.2.1 (9c6d41e4, 2022-07-14)"
   xmlns:inkscape="http://www.inkscape.org/namespaces/inkscape"
   xmlns:sodipodi="http://sodipodi.sourceforge.net/DTD/sodipodi-0.dtd"
   xmlns="http://www.w3.org/2000/svg"
   xmlns:svg="http://www.w3.org/2000/svg">
  <defs
     id="defs14" />
  <sodipodi:namedview
     id="namedview12"
     pagecolor="#ffffff"
     bordercolor="#000000"
     borderopacity="0.25"
     inkscape:showpageshadow="2"
     inkscape:pageopacity="0.0"
     inkscape:pagecheckerboard="0"
     inkscape:deskcolor="#d1d1d1"
     inkscape:document-units="pt"
     showgrid="false"
     inkscape:zoom="0.25285714"
     inkscape:cx="464.68927"
     inkscape:cy="466.66667"
     inkscape:window-width="1309"
     inkscape:window-height="456"
     inkscape:window-x="0"
     inkscape:window-y="0"
     inkscape:window-maximized="0"
     inkscape:current-layer="svg10" />
  <g
     id="g8"
     transform="translate(0.0110617,63.00005)">
    <path
       d="m 139.99,112 h 420 c 0.54687,2.7344 0.82422,4.1094 0.99609,5.207 5.2656,33.125 -19.566,63.414 -53.074,64.75 -1.1172,0.043 -2.5117,0.043 -5.3047,0.043 h -305.23 c -2.7969,0 -4.1953,0 -5.3125,-0.043 -33.504,-1.3359 -58.336,-31.621 -53.074,-64.742 0.17578,-1.1016 0.44922,-2.4727 0.99609,-5.2148 z"
       id="path2" />
    <path
       d="m 154,392 h 392 c 0.54688,2.7383 0.82031,4.1094 0.99609,5.2109 5.2656,33.121 -19.566,63.41 -53.074,64.746 -1.1172,0.043 -2.5117,0.043 -5.3047,0.043 h -277.23 c -2.8008,0 -4.1992,0 -5.3125,-0.043 -33.508,-1.3359 -58.336,-31.621 -53.074,-64.742 0.17188,-1.1016 0.44922,-2.4727 0.99609,-5.2148 z"
       id="path4" />
    <path
       d="M 553,252 H 147 c -0.54688,2.7383 -0.82031,4.1094 -0.99609,5.2109 -5.2617,33.121 19.566,63.41 53.078,64.746 1.1133,0.043 2.5117,0.043 5.3047,0.043 h 291.23 c 2.7969,0 4.1914,0 5.3086,-0.043 33.508,-1.3359 58.336,-31.625 53.074,-64.746 -0.17578,-1.0977 -0.44922,-2.4688 -0.99609,-5.2109 z"
       id="path6" />
  </g>
</svg>
