<?xml version="1.0" encoding="UTF-8" standalone="no"?>
<svg
   width="700pt"
   height="700pt"
   version="1.1"
   viewBox="0 0 700 700"
   id="svg221"
   sodipodi:docname="noun-eye.svg"
   inkscape:version="1.2.1 (9c6d41e4, 2022-07-14)"
   xmlns:inkscape="http://www.inkscape.org/namespaces/inkscape"
   xmlns:sodipodi="http://sodipodi.sourceforge.net/DTD/sodipodi-0.dtd"
   xmlns="http://www.w3.org/2000/svg"
   xmlns:svg="http://www.w3.org/2000/svg">
  <defs
     id="defs225" />
  <sodipodi:namedview
     id="namedview223"
     pagecolor="#ffffff"
     bordercolor="#000000"
     borderopacity="0.25"
     inkscape:showpageshadow="2"
     inkscape:pageopacity="0.0"
     inkscape:pagecheckerboard="0"
     inkscape:deskcolor="#d1d1d1"
     inkscape:document-units="pt"
     showgrid="false"
     inkscape:zoom="0.25285714"
     inkscape:cx="-116.66667"
     inkscape:cy="1091.5254"
     inkscape:window-width="1309"
     inkscape:window-height="456"
     inkscape:window-x="0"
     inkscape:window-y="0"
     inkscape:window-maximized="0"
     inkscape:current-layer="svg221" />
  <path
     d="m 98,411.25 c 0,-140 112,-238 252,-238 140,0 252,98 252,238 -119,154 -385,154 -504,0 z m 42.492,-14.461 c 50.668,57.547 128.76,87.961 209.51,87.961 80.75,0 158.84,-30.414 209.51,-87.961 -4.9453,-72.082 -46.805,-129.98 -109.13,-159.71 16.078,21.156 25.625,47.551 25.625,76.176 0,69.59 -56.41,126 -126,126 -69.59,0 -126,-56.41 -126,-126 0,-4.7031 0.25781,-9.3477 0.76172,-13.914 l 125.24,13.914 -42,-94.5 c -93.617,15.98 -161.14,85.258 -167.51,178.04 z"
     fill-rule="evenodd"
     id="path219" />
</svg>
