<?xml version="1.0" encoding="UTF-8" standalone="no"?>
<svg
   width="700pt"
   height="700pt"
   version="1.1"
   viewBox="0 0 700 700"
   id="svg4"
   sodipodi:docname="noun-close.svg"
   inkscape:version="1.2.1 (9c6d41e4, 2022-07-14)"
   xmlns:inkscape="http://www.inkscape.org/namespaces/inkscape"
   xmlns:sodipodi="http://sodipodi.sourceforge.net/DTD/sodipodi-0.dtd"
   xmlns="http://www.w3.org/2000/svg"
   xmlns:svg="http://www.w3.org/2000/svg">
  <defs
     id="defs8" />
  <sodipodi:namedview
     id="namedview6"
     pagecolor="#ffffff"
     bordercolor="#000000"
     borderopacity="0.25"
     inkscape:showpageshadow="2"
     inkscape:pageopacity="0.0"
     inkscape:pagecheckerboard="0"
     inkscape:deskcolor="#d1d1d1"
     inkscape:document-units="pt"
     showgrid="false"
     inkscape:zoom="0.25285714"
     inkscape:cx="464.68927"
     inkscape:cy="466.66667"
     inkscape:window-width="1309"
     inkscape:window-height="456"
     inkscape:window-x="0"
     inkscape:window-y="0"
     inkscape:window-maximized="0"
     inkscape:current-layer="svg4" />
  <path
     d="m 172.878,203.78 c -18.875,28.246 -18.875,67.574 -18.875,146.22 0,78.646 0,117.98 18.875,146.22 8.1719,12.23 18.672,22.73 30.902,30.902 28.246,18.875 67.574,18.875 146.22,18.875 78.646,0 117.98,0 146.22,-18.875 12.23,-8.1719 22.73,-18.672 30.902,-30.902 18.875,-28.246 18.875,-67.574 18.875,-146.22 0,-78.646 0,-117.98 -18.875,-146.22 C 518.9501,191.55 508.45,181.05 496.22,172.878 467.974,154.003 428.646,154.003 350,154.003 c -78.646,0 -117.98,0 -146.22,18.875 -12.23,8.1719 -22.73,18.672 -30.902,30.902 z m 68.234,76.926 39.598,-39.598 69.301,73.258 69.293,-73.258 39.598,39.598 -74.27,70.258 40.465,42.773 c 9.4844,10.027 14.23,15.043 16.207,20.648 2.2188,6.2812 2.125,13.152 -0.26562,19.371 -2.1367,5.5469 -7.0156,10.426 -16.777,20.188 l -74.246,-70.227 -74.25,70.238 -29.699,-29.699 69.324,-73.289 z"
     fill-rule="evenodd"
     id="path2" />
</svg>
