<?xml version="1.0" encoding="UTF-8"?>
<svg width="700pt" height="700pt" version="1.1" viewBox="0 0 700 700" xmlns="http://www.w3.org/2000/svg">
 <path d="m172.88 133.78c-18.875 28.246-18.875 67.574-18.875 146.22s0 117.98 18.875 146.22c8.1719 12.23 18.672 22.73 30.902 30.902 28.246 18.875 67.574 18.875 146.22 18.875s117.98 0 146.22-18.875c12.23-8.1719 22.73-18.672 30.902-30.902 18.875-28.246 18.875-67.574 18.875-146.22s0-117.98-18.875-146.22c-8.1719-12.23-18.672-22.73-30.902-30.902-28.246-18.875-67.574-18.875-146.22-18.875s-117.98 0-146.22 18.875c-12.23 8.1719-22.73 18.672-30.902 30.902zm68.234 76.926 39.598-39.598 69.301 73.258 69.293-73.258 39.598 39.598-74.27 70.258 40.465 42.773c9.4844 10.027 14.23 15.043 16.207 20.648 2.2188 6.2812 2.125 13.152-0.26562 19.371-2.1367 5.5469-7.0156 10.426-16.777 20.188l-74.246-70.227-74.25 70.238-29.699-29.699 69.324-73.289z" fill-rule="evenodd"/>
</svg>
