<?xml version="1.0" encoding="UTF-8"?>
<svg width="700pt" height="700pt" version="1.1" viewBox="0 0 700 700" xmlns="http://www.w3.org/2000/svg">
 <g>
  <path d="m375.3 185.31-50.719 189.28c-52.266-14.008-83.285-67.73-69.277-120 14.004-52.27 67.727-83.285 120-69.281z"/>
  <path d="m552.74 334.29c-30.008 112-145.13 178.46-257.13 148.45-112-30.008-178.46-145.13-148.45-257.13 30.008-112 145.13-178.46 257.13-148.45 112 30.008 178.46 145.13 148.45 257.13zm-246.27 107.89 18.113-67.594c52.266 14.004 105.99-17.016 120-69.281 14.004-52.266-17.012-105.99-69.277-120l18.113-67.598c-89.602-24.008-181.7 29.164-205.71 118.76-24.008 89.602 29.164 181.7 118.76 205.71z" fill-rule="evenodd"/>
 </g>
</svg>
