<?xml version="1.0" encoding="UTF-8"?>
<svg width="700pt" height="700pt" version="1.1" viewBox="0 0 700 700" xmlns="http://www.w3.org/2000/svg">
 <path d="m443.64 82.531c3.7344 7.1211 3.0508 16.031 1.6875 33.848l-0.67969 8.8477c-2.3164 30.258-3.4766 45.387 5.625 54.488 9.1055 9.1016 24.234 7.9453 54.488 5.625l8.8555-0.67578c17.816-1.3672 26.723-2.0469 33.848 1.6836 2.207 1.1602 4.25 2.6094 6.0781 4.3086 5.8828 5.4766 8.1953 14.109 12.82 31.367 4.625 17.262 6.9375 25.891 4.582 33.578-0.73047 2.3867-1.7773 4.6602-3.1133 6.7695-4.3008 6.793-12.355 10.656-28.469 18.383l-8.0039 3.8398c-27.363 13.117-41.043 19.68-44.375 32.113-3.332 12.434 5.2383 24.957 22.371 50l5.0117 7.3203c10.09 14.75 15.133 22.121 15.461 30.156 0.10156 2.4922-0.12891 4.9883-0.6875 7.418-1.8047 7.8359-8.1211 14.152-20.758 26.789-12.633 12.637-18.949 18.953-26.785 20.754-2.4336 0.55859-4.9297 0.79297-7.4219 0.69141-8.0312-0.32813-15.406-5.375-30.152-15.465l-7.3242-5.0117c-25.047-17.137-37.566-25.703-50.004-22.371-12.43 3.332-18.992 17.012-32.113 44.375l-3.8359 8c-7.7266 16.113-11.59 24.168-18.383 28.469-2.1094 1.3359-4.3867 2.3828-6.7695 3.1133-7.6875 2.3555-16.316 0.042969-33.578-4.582-17.258-4.625-25.891-6.9375-31.367-12.82-1.7031-1.8242-3.1484-3.8711-4.3086-6.0781-3.7344-7.1211-3.0508-16.031-1.6836-33.848l0.67578-8.8477c2.3164-30.254 3.4766-45.383-5.625-54.484-9.1055-9.1016-24.234-7.9453-54.488-5.6289l-8.8398 0.67969c-17.816 1.3633-26.727 2.0469-33.848-1.6875-2.2109-1.1562-4.2539-2.6055-6.0781-4.3047-5.8867-5.4805-8.1992-14.109-12.824-31.371-4.625-17.258-6.9375-25.887-4.5781-33.574 0.73047-2.3867 1.7773-4.6641 3.1094-6.7695 4.3008-6.793 12.359-10.656 28.469-18.383l8-3.8359c27.359-13.121 41.043-19.684 44.371-32.117 3.332-12.434-5.2344-24.957-22.367-50l-5.0156-7.3242c-10.09-14.75-15.133-22.121-15.461-30.156-0.10156-2.4922 0.12891-4.9844 0.6875-7.418 1.8047-7.8359 8.1211-14.152 20.758-26.789 12.633-12.633 18.953-18.953 26.789-20.754 2.4297-0.55859 4.9219-0.79297 7.4141-0.69141 8.0352 0.32812 15.41 5.375 30.156 15.465l7.3203 5.0078c25.047 17.137 37.57 25.703 50.004 22.371 12.434-3.3281 18.992-17.012 32.113-44.371l3.8398-8.0039c7.7227-16.109 11.59-24.168 18.383-28.469 2.1055-1.332 4.3828-2.3789 6.7656-3.1094 7.6914-2.3594 16.32-0.046875 33.578 4.5781 17.262 4.625 25.891 6.9375 31.371 12.824 1.6992 1.8242 3.1484 3.8711 4.3047 6.0781zm-111.77 265.08c37.344 10.004 75.727-12.156 85.734-49.5 10.004-37.34-12.156-75.727-49.5-85.73-37.34-10.004-75.727 12.156-85.73 49.496-10.004 37.344 12.156 75.727 49.496 85.734z" fill-rule="evenodd"/>
</svg>
