<?xml version="1.0" encoding="UTF-8"?>
<svg width="700pt" height="700pt" version="1.1" viewBox="0 0 700 700" xmlns="http://www.w3.org/2000/svg">
 <path d="m172.88 133.78c-18.875 28.246-18.875 67.574-18.875 146.22s0 117.98 18.875 146.22c8.1719 12.23 18.672 22.73 30.902 30.902 28.246 18.875 67.574 18.875 146.22 18.875s117.98 0 146.22-18.875c12.23-8.1719 22.73-18.672 30.902-30.902 18.875-28.246 18.875-67.574 18.875-146.22s0-117.98-18.875-146.22c-8.1719-12.23-18.672-22.73-30.902-30.902-28.246-18.875-67.574-18.875-146.22-18.875s-117.98 0-146.22 18.875c-12.23 8.1719-22.73 18.672-30.902 30.902zm51.773 131.92c-4.9062 8.2539-3.4844 19.605-0.64844 42.305h252c2.8359-22.699 4.2578-34.051-0.64844-42.305-1.7891-3.0078-4.125-5.6562-6.8906-7.8047-7.5781-5.8906-19.02-5.8906-41.895-5.8906h-153.13c-22.875 0-34.316 0-41.895 5.8906-2.7656 2.1484-5.1016 4.7969-6.8906 7.8047z" fill-rule="evenodd"/>
</svg>
