<?xml version="1.0" encoding="UTF-8"?>
<svg width="700pt" height="700pt" version="1.1" viewBox="0 0 700 700" xmlns="http://www.w3.org/2000/svg">
 <path d="m172.88 133.78c-18.875 28.246-18.875 67.574-18.875 146.22s0 117.98 18.875 146.22c8.1719 12.23 18.672 22.73 30.902 30.902 28.246 18.875 67.574 18.875 146.22 18.875s117.98 0 146.22-18.875c12.23-8.1719 22.73-18.672 30.902-30.902 18.875-28.246 18.875-67.574 18.875-146.22s0-117.98-18.875-146.22c-8.1719-12.23-18.672-22.73-30.902-30.902-28.246-18.875-67.574-18.875-146.22-18.875s-117.98 0-146.22 18.875c-12.23 8.1719-22.73 18.672-30.902 30.902zm43.629 12.727c-20.504 20.5-20.504 53.5-20.504 119.5v28c0 65.996 0 98.996 20.504 119.5 20.5 20.504 53.5 20.504 119.5 20.504h28c65.996 0 98.996 0 119.5-20.504 20.504-20.5 20.504-53.5 20.504-119.5v-28c0-65.996 0-98.996-20.504-119.5-20.5-20.504-53.5-20.504-119.5-20.504h-28c-65.996 0-98.996 0-119.5 20.504z" fill-rule="evenodd"/>
</svg>
