<?xml version="1.0" encoding="UTF-8"?>
<svg width="700pt" height="700pt" version="1.1" viewBox="0 0 700 700" xmlns="http://www.w3.org/2000/svg">
 <path d="m185.65 101.07c-16.508 17.066-15.602 44.27-13.789 98.664l10.145 304.27 136.93-91.293c15.059-10.035 22.586-15.055 31.062-15.055 8.4805 0 16.008 5.0195 31.066 15.055l136.93 91.293 10.145-304.27c1.8125-54.395 2.7188-81.598-13.789-98.664-16.508-17.066-43.719-17.066-98.148-17.066h-132.41c-54.43 0-81.641 0-98.148 17.066zm30.16 29.195c-4.1289 4.2656-3.9062 11.059-3.4648 24.648l8.8594 272.09 52.32-34.125c37.113-24.203 55.668-36.305 76.48-36.305 20.809 0 39.363 12.102 76.477 36.305l52.324 34.125 8.8555-272.09c0.44141-13.59 0.66406-20.383-3.4609-24.648-4.1289-4.2617-10.926-4.2617-24.523-4.2617h-219.35c-13.594 0-20.395 0-24.52 4.2617z" fill-rule="evenodd"/>
</svg>
