<?xml version="1.0" encoding="UTF-8" standalone="no"?>
<svg
   width="700pt"
   height="700pt"
   version="1.1"
   viewBox="0 0 700 700"
   id="svg4"
   sodipodi:docname="noun-checked.svg"
   inkscape:version="1.2.1 (9c6d41e4, 2022-07-14)"
   xmlns:inkscape="http://www.inkscape.org/namespaces/inkscape"
   xmlns:sodipodi="http://sodipodi.sourceforge.net/DTD/sodipodi-0.dtd"
   xmlns="http://www.w3.org/2000/svg"
   xmlns:svg="http://www.w3.org/2000/svg">
  <defs
     id="defs8" />
  <sodipodi:namedview
     id="namedview6"
     pagecolor="#ffffff"
     bordercolor="#000000"
     borderopacity="0.25"
     inkscape:showpageshadow="2"
     inkscape:pageopacity="0.0"
     inkscape:pagecheckerboard="0"
     inkscape:deskcolor="#d1d1d1"
     inkscape:document-units="pt"
     showgrid="false"
     inkscape:zoom="0.25285714"
     inkscape:cx="464.68927"
     inkscape:cy="466.66667"
     inkscape:window-width="1309"
     inkscape:window-height="456"
     inkscape:window-x="0"
     inkscape:window-y="0"
     inkscape:window-maximized="0"
     inkscape:current-layer="svg4" />
  <path
     d="m 172.878,203.78 c -18.875,28.246 -18.875,67.574 -18.875,146.22 0,78.646 0,117.98 18.875,146.22 8.1719,12.23 18.672,22.73 30.902,30.902 28.246,18.875 67.574,18.875 146.22,18.875 78.646,0 117.98,0 146.22,-18.875 12.23,-8.1719 22.73,-18.672 30.902,-30.902 18.875,-28.246 18.875,-67.574 18.875,-146.22 0,-78.646 0,-117.98 -18.875,-146.22 C 518.9501,191.55 508.45,181.05 496.22,172.878 467.974,154.003 428.646,154.003 350,154.003 c -78.646,0 -117.98,0 -146.22,18.875 -12.23,8.1719 -22.73,18.672 -30.902,30.902 z m 311.23,84.285 -148,159.94 -119.1,-133 c 9.2031,-9.2031 13.805,-13.805 19.062,-15.938 6.0039,-2.4375 12.664,-2.7148 18.852,-0.78906 5.418,1.6875 10.391,5.8867 20.328,14.289 l 60.859,51.438 146.9,-133 c 8.3711,8.3711 12.555,12.555 14.66,17.199 3.1719,7 3.3242,14.992 0.42578,22.109 -1.918,4.7188 -5.9414,9.0664 -13.98,17.754 z"
     fill-rule="evenodd"
     id="path2" />
</svg>
