<?xml version="1.0" encoding="UTF-8" standalone="no"?>
<svg
   width="700pt"
   height="700pt"
   version="1.1"
   viewBox="0 0 700 700"
   id="svg4"
   sodipodi:docname="noun-bookmark.svg"
   inkscape:version="1.2.1 (9c6d41e4, 2022-07-14)"
   xmlns:inkscape="http://www.inkscape.org/namespaces/inkscape"
   xmlns:sodipodi="http://sodipodi.sourceforge.net/DTD/sodipodi-0.dtd"
   xmlns="http://www.w3.org/2000/svg"
   xmlns:svg="http://www.w3.org/2000/svg">
  <defs
     id="defs8" />
  <sodipodi:namedview
     id="namedview6"
     pagecolor="#ffffff"
     bordercolor="#000000"
     borderopacity="0.25"
     inkscape:showpageshadow="2"
     inkscape:pageopacity="0.0"
     inkscape:pagecheckerboard="0"
     inkscape:deskcolor="#d1d1d1"
     inkscape:document-units="pt"
     showgrid="false"
     inkscape:zoom="0.25285714"
     inkscape:cx="464.68927"
     inkscape:cy="466.66667"
     inkscape:window-width="1309"
     inkscape:window-height="456"
     inkscape:window-x="0"
     inkscape:window-y="0"
     inkscape:window-maximized="0"
     inkscape:current-layer="svg4" />
  <path
     d="m 185.65013,157.066 c -16.508,17.066 -15.602,44.27 -13.789,98.664 l 10.145,304.27 136.93,-91.293 c 15.059,-10.035 22.586,-15.055 31.062,-15.055 8.4805,0 16.008,5.0195 31.066,15.055 l 136.93,91.293 10.145,-304.27 c 1.8125,-54.395 2.7188,-81.598 -13.789,-98.664 C 497.84213,140 470.63113,140 416.20213,140 h -132.41 c -54.43,0 -81.641,0 -98.148,17.066 z m 30.16,29.195 c -4.1289,4.2656 -3.9062,11.059 -3.4648,24.648 l 8.8594,272.09 52.32,-34.125 c 37.113,-24.203 55.668,-36.305 76.48,-36.305 20.809,0 39.363,12.102 76.477,36.305 l 52.324,34.125 8.8555,-272.09 c 0.44141,-13.59 0.66406,-20.383 -3.4609,-24.648 -4.1289,-4.2617 -10.926,-4.2617 -24.523,-4.2617 h -219.35 c -13.594,0 -20.395,0 -24.52,4.2617 z"
     fill-rule="evenodd"
     id="path2" />
</svg>
