<?xml version="1.0" encoding="UTF-8"?>
<svg width="700pt" height="700pt" version="1.1" viewBox="0 0 700 700" xmlns="http://www.w3.org/2000/svg">
 <path d="m98 350c0-140 112-238 252-238s252 98 252 238c-119 154-385 154-504 0zm42.492-14.461c50.668 57.547 128.76 87.961 209.51 87.961s158.84-30.414 209.51-87.961c-4.9453-72.082-46.805-129.98-109.13-159.71 16.078 21.156 25.625 47.551 25.625 76.176 0 69.59-56.41 126-126 126s-126-56.41-126-126c0-4.7031 0.25781-9.3477 0.76172-13.914l125.24 13.914-42-94.5c-93.617 15.98-161.14 85.258-167.51 178.04z" fill-rule="evenodd"/>
</svg>
