<?xml version="1.0" encoding="UTF-8"?>
<svg width="700pt" height="700pt" version="1.1" viewBox="0 0 700 700" xmlns="http://www.w3.org/2000/svg">
 <path d="m298.9 56.941c3.25-5.6328 4.875-8.4453 6.4766-10.684 15.562-21.715 44.297-29.414 68.633-18.387 2.5039 1.1328 5.3203 2.7578 10.949 6.0078 5.6289 3.2539 8.4453 4.8789 10.68 6.4805 21.719 15.562 29.418 44.297 18.391 68.629-1.1367 2.5078-2.7617 5.3203-6.0117 10.953l-17.5 30.309-109.12-63zm70.617 129.68-112.39 182.75c-9.7461 15.848-14.621 23.773-21.637 29.633-7.0117 5.8594-15.676 9.2422-33.008 16.016l-48.523 18.957-7.8438-51.5c-2.8008-18.395-4.2031-27.594-2.6367-36.598 1.5664-9 5.9961-17.184 14.848-33.551l102.07-188.71zm218.48 289.38h-441l-14 56 424.75-12.68c22.051-0.65625 37.23-22.391 30.254-43.32z" fill-rule="evenodd"/>
</svg>
