<?xml version="1.0" encoding="UTF-8"?>
<svg width="700pt" height="700pt" version="1.1" viewBox="0 0 700 700" xmlns="http://www.w3.org/2000/svg">
 <g>
  <path d="m139.99 112h420c0.54687 2.7344 0.82422 4.1094 0.99609 5.207 5.2656 33.125-19.566 63.414-53.074 64.75-1.1172 0.042969-2.5117 0.042969-5.3047 0.042969h-305.23c-2.7969 0-4.1953 0-5.3125-0.042969-33.504-1.3359-58.336-31.621-53.074-64.742 0.17578-1.1016 0.44922-2.4727 0.99609-5.2148z"/>
  <path d="m154 392h392c0.54688 2.7383 0.82031 4.1094 0.99609 5.2109 5.2656 33.121-19.566 63.41-53.074 64.746-1.1172 0.042969-2.5117 0.042969-5.3047 0.042969h-277.23c-2.8008 0-4.1992 0-5.3125-0.042969-33.508-1.3359-58.336-31.621-53.074-64.742 0.17188-1.1016 0.44922-2.4727 0.99609-5.2148z"/>
  <path d="m553 252h-406c-0.54688 2.7383-0.82031 4.1094-0.99609 5.2109-5.2617 33.121 19.566 63.41 53.078 64.746 1.1133 0.042969 2.5117 0.042969 5.3047 0.042969h291.23c2.7969 0 4.1914 0 5.3086-0.042969 33.508-1.3359 58.336-31.625 53.074-64.746-0.17578-1.0977-0.44922-2.4688-0.99609-5.2109z"/>
 </g>
</svg>
