<?xml version="1.0" encoding="UTF-8"?>
<svg width="700pt" height="700pt" version="1.1" viewBox="0 0 700 700" xmlns="http://www.w3.org/2000/svg">
 <path d="m554.11 264.73c12.422-7.5898 24.383-15.848 35.844-24.73l-26.141-32.883c-59.133 45.695-133.3 72.879-213.81 72.879-80.516 0-154.68-27.188-213.82-72.883l-26.141 32.887c11.406 8.8359 23.309 17.059 35.664 24.621l-17.965 22.262c-13.789 17.094-7.0508 42.656 13.375 50.727l44.941-51.438c15.836 7.3047 32.246 13.578 49.137 18.746l-15.086 44.059c-7.1133 20.777 7.9648 42.496 29.918 43.094l29.543-76.383c15.547 2.8203 31.41 4.7227 47.531 5.6523l1.0469 54.391c0.42187 21.961 22.016 37.211 42.852 30.266l1.6914-84.645c16.125-0.92188 31.992-2.8164 47.535-5.6289l18.602 48.199c7.9062 20.492 33.414 27.438 50.617 13.785l-24.836-72.73c16.891-5.1562 33.297-11.422 49.133-18.711l25.047 28.707c14.438 16.551 40.781 14.355 52.281-4.3594z"/>
</svg>
