<?xml version="1.0" encoding="UTF-8"?>
<svg width="700pt" height="700pt" version="1.1" viewBox="0 0 700 700" xmlns="http://www.w3.org/2000/svg">
 <path d="m172.88 133.78c-18.875 28.246-18.875 67.574-18.875 146.22s0 117.98 18.875 146.22c8.1719 12.23 18.672 22.73 30.902 30.902 28.246 18.875 67.574 18.875 146.22 18.875s117.98 0 146.22-18.875c12.23-8.1719 22.73-18.672 30.902-30.902 18.875-28.246 18.875-67.574 18.875-146.22s0-117.98-18.875-146.22c-8.1719-12.23-18.672-22.73-30.902-30.902-28.246-18.875-67.574-18.875-146.22-18.875s-117.98 0-146.22 18.875c-12.23 8.1719-22.73 18.672-30.902 30.902zm311.23 84.285-148 159.94-119.1-133c9.2031-9.2031 13.805-13.805 19.062-15.938 6.0039-2.4375 12.664-2.7148 18.852-0.78906 5.418 1.6875 10.391 5.8867 20.328 14.289l60.859 51.438 146.9-133c8.3711 8.3711 12.555 12.555 14.66 17.199 3.1719 7 3.3242 14.992 0.42578 22.109-1.918 4.7188-5.9414 9.0664-13.98 17.754z" fill-rule="evenodd"/>
</svg>
